<svg xmlns="http://www.w3.org/2000/svg" width="217" height="217" fill="none" viewBox="0 0 217 217"><rect width="216.319" height="216.319" fill="url(#paint0_linear_5:2)" rx="48"/><path fill="#F4F8FE" d="M48.7778 64.9912V150.575H167.541V91.1934H61.8418L48.7778 64.9912Z" opacity=".3"/><path fill="#F4F8FE" d="M152.696 46.6571L167.541 76.348H145.273L130.428 46.6571H115.582L130.428 76.348H108.16L93.3141 46.6571H78.4687L93.3141 76.348H71.046L56.2005 46.6571H48.7778C40.6128 46.6571 33.9324 53.3375 33.9324 61.5025V150.575C33.9324 158.74 40.6128 165.421 48.7778 165.421H167.541C175.706 165.421 182.387 158.74 182.387 150.575V46.6571H152.696ZM167.541 150.575H48.7778V64.9912L61.8418 91.1934H167.541V150.575Z"/><defs><linearGradient id="paint0_linear_5:2" x1="-8.872" x2="204.067" y1="0" y2="222.657" gradientUnits="userSpaceOnUse"><stop offset=".036" stop-color="#4872F1"/><stop offset=".996" stop-color="#1BA3C5"/></linearGradient></defs></svg>